<svg width="272" height="175" viewBox="0 0 272 175" fill="none" xmlns="http://www.w3.org/2000/svg">
<g clip-path="url(#clip0_789_98)">
<g filter="url(#filter0_d_789_98)">
<rect width="272" height="175" rx="10" fill="url(#paint0_linear_789_98)"/>
</g>
<rect x="21.7778" y="55" width="42.2222" height="37" rx="3.3" fill="url(#paint1_linear_789_98)"/>
<path fill-rule="evenodd" clip-rule="evenodd" d="M32.0001 55V64.25H33.0001V55H32.0001ZM48.8889 79.4853C48.8889 80.7313 49.929 81.75 51.2223 81.75H64.0001V82.75H52.0001V91.75H51.0001V82.75H51.2223C49.3813 82.75 47.8889 81.2883 47.8889 79.4853V78H37.0556V77H47.8889V73V72V68H37.0556V67H47.8889V66.9706C47.8889 65.2407 49.2627 63.825 51.0001 63.713V55H52.0001V63.7059H64.0001V64.7059H51.2223C49.929 64.7059 48.8889 65.7245 48.8889 66.9706V72H64.0001V73H48.8889V79.4853ZM32.0001 82.75V91.75H33.0001V82.75H32.0001ZM36.7778 73H21.7778V72H36.7778V73Z" fill="url(#paint2_linear_789_98)"/>
<path fill-rule="evenodd" clip-rule="evenodd" d="M248.017 153.336V149.316H247.038V151.653C246.712 151.233 246.246 150.999 245.64 150.999C244.381 150.999 243.402 151.98 243.402 153.336C243.402 154.691 244.381 155.673 245.64 155.673C246.292 155.673 246.758 155.439 247.038 155.018V155.579H248.017V153.336ZM219.119 151.092H220.703V151.98H219.119V153.99C219.119 154.458 219.305 154.738 219.771 154.738C220.004 154.738 220.33 154.691 220.61 154.504L220.89 155.346C220.563 155.533 220.097 155.673 219.678 155.673C218.559 155.673 218.14 155.065 218.14 154.037V151.98H217.254V151.092H218.14V149.737H219.119V151.092ZM206.208 152.775V155.579H205.135V153.102C205.135 152.354 204.809 151.934 204.157 151.934C203.551 151.934 203.085 152.308 203.085 153.102V155.579H202.106V153.102C202.106 152.354 201.78 151.934 201.127 151.934C200.474 151.934 200.055 152.308 200.055 153.102V155.579H199.076V151.092H200.055V151.653C200.428 151.139 200.894 150.999 201.36 150.999C202.059 150.999 202.525 151.279 202.852 151.793C203.271 151.186 203.877 150.999 204.436 150.999C205.555 150.999 206.208 151.7 206.208 152.775ZM229 150.999C228.441 150.999 228.068 151.279 227.835 151.653V151.092H226.856V155.579H227.835V153.055C227.835 152.308 228.161 151.887 228.767 151.887C228.953 151.887 229.186 151.934 229.373 151.98L229.652 151.046C229.466 150.999 229.186 150.999 229 150.999ZM214.644 150.999C215.343 150.999 215.996 151.139 216.462 151.466L216.042 152.261C215.763 152.121 215.203 151.887 214.644 151.887C214.131 151.887 213.805 152.074 213.805 152.401C213.805 152.682 214.131 152.775 214.551 152.822L215.017 152.868C215.949 153.009 216.555 153.429 216.555 154.224C216.555 155.065 215.809 155.673 214.504 155.673C213.805 155.673 213.106 155.486 212.593 155.112L213.059 154.364C213.385 154.598 213.898 154.832 214.551 154.832C215.203 154.832 215.576 154.598 215.576 154.271C215.576 154.037 215.297 153.897 214.784 153.803L214.318 153.757C213.339 153.616 212.78 153.196 212.78 152.448C212.78 151.56 213.525 150.999 214.644 150.999ZM242.47 150.999C241.911 150.999 241.538 151.279 241.305 151.653V151.092H240.326V155.579H241.305V153.055C241.305 152.308 241.631 151.887 242.237 151.887C242.424 151.887 242.657 151.934 242.843 151.98L243.123 151.046C242.936 150.999 242.657 150.999 242.47 150.999ZM232.356 155.673C230.911 155.673 229.979 154.691 229.979 153.336C229.979 151.98 230.911 150.999 232.356 150.999C233.008 150.999 233.474 151.139 233.941 151.513L233.474 152.308C233.102 152.027 232.729 151.887 232.309 151.887C231.517 151.934 230.958 152.495 230.958 153.336C230.958 154.224 231.517 154.785 232.309 154.785C232.729 154.785 233.102 154.645 233.474 154.364L233.941 155.159C233.474 155.533 233.008 155.673 232.356 155.673ZM239.021 153.336V151.092H238.042V151.653C237.716 151.233 237.25 150.999 236.644 150.999C235.385 150.999 234.407 151.98 234.407 153.336C234.407 154.691 235.385 155.673 236.644 155.673C237.297 155.673 237.763 155.439 238.042 155.018V155.579H239.021V153.336ZM236.784 151.887C235.945 151.887 235.432 152.541 235.432 153.336C235.432 154.13 235.945 154.738 236.784 154.785C237.576 154.785 238.135 154.13 238.135 153.336C238.135 152.495 237.576 151.887 236.784 151.887ZM223.733 150.999C222.428 150.999 221.496 151.934 221.496 153.336C221.496 154.738 222.428 155.673 223.78 155.673C224.432 155.673 225.085 155.486 225.597 155.065L225.131 154.364C224.758 154.645 224.292 154.832 223.826 154.832C223.22 154.832 222.614 154.551 222.474 153.757H225.784V153.383C225.83 151.934 224.991 150.999 223.733 150.999ZM224.852 152.915C224.758 152.214 224.339 151.84 223.733 151.84C223.034 151.84 222.614 152.308 222.521 152.915H224.852ZM245.78 151.887C244.941 151.887 244.428 152.541 244.428 153.336C244.428 154.13 244.941 154.738 245.78 154.785C246.572 154.785 247.131 154.13 247.131 153.336C247.131 152.495 246.572 151.887 245.78 151.887ZM211.708 153.336V151.092H210.729V151.653C210.402 151.233 209.936 150.999 209.33 150.999C208.072 150.999 207.093 151.98 207.093 153.336C207.093 154.691 208.072 155.673 209.33 155.673C209.983 155.673 210.449 155.439 210.729 155.018V155.579H211.708V153.336ZM209.424 151.887C208.585 151.887 208.072 152.541 208.072 153.336C208.072 154.13 208.585 154.738 209.424 154.785C210.216 154.785 210.775 154.13 210.775 153.336C210.775 152.495 210.216 151.887 209.424 151.887Z" fill="white"/>
<path d="M216.135 117.02H230.817V143.474H216.135V117.02Z" fill="#FF5F00"/>
<path d="M217.068 130.247C217.068 124.872 219.585 120.104 223.453 117.02C220.61 114.776 217.021 113.421 213.106 113.421C203.83 113.421 196.326 120.946 196.326 130.247C196.326 139.548 203.83 147.073 213.106 147.073C217.021 147.073 220.61 145.717 223.453 143.474C219.585 140.436 217.068 135.622 217.068 130.247Z" fill="#EB001B"/>
<path d="M250.627 130.247C250.627 139.548 243.123 147.073 233.847 147.073C229.932 147.073 226.343 145.717 223.5 143.474C227.415 140.389 229.886 135.622 229.886 130.247C229.886 124.872 227.369 120.104 223.5 117.02C226.343 114.776 229.932 113.421 233.847 113.421C243.123 113.421 250.627 120.992 250.627 130.247Z" fill="#F79E1B"/>
</g>
<path d="M19.442 123L23.828 111.1H25.8L30.152 123H28.248L27.228 120.093H22.366L21.346 123H19.442ZM22.876 118.665H26.718L24.797 113.242L22.876 118.665ZM33.1934 123L30.0314 114.568H31.9184L34.2644 121.283L36.6104 114.568H38.4804L35.3354 123H33.1934ZM42.3358 123.204C41.6218 123.204 41.0325 123.085 40.5678 122.847C40.1032 122.609 39.7575 122.297 39.5308 121.912C39.3042 121.515 39.1908 121.085 39.1908 120.62C39.1908 119.804 39.5082 119.158 40.1428 118.682C40.7775 118.206 41.6842 117.968 42.8628 117.968H45.0728V117.815C45.0728 117.158 44.8915 116.665 44.5288 116.336C44.1775 116.007 43.7185 115.843 43.1518 115.843C42.6532 115.843 42.2168 115.968 41.8428 116.217C41.4802 116.455 41.2592 116.812 41.1798 117.288H39.3778C39.4345 116.676 39.6385 116.155 39.9898 115.724C40.3525 115.282 40.8058 114.948 41.3498 114.721C41.9052 114.483 42.5115 114.364 43.1688 114.364C44.3475 114.364 45.2598 114.676 45.9058 115.299C46.5518 115.911 46.8748 116.75 46.8748 117.815V123H45.3108L45.1578 121.555C44.9198 122.02 44.5742 122.411 44.1208 122.728C43.6675 123.045 43.0725 123.204 42.3358 123.204ZM42.6928 121.742C43.1802 121.742 43.5882 121.629 43.9168 121.402C44.2568 121.164 44.5175 120.852 44.6988 120.467C44.8915 120.082 45.0105 119.657 45.0558 119.192H43.0498C42.3358 119.192 41.8258 119.317 41.5198 119.566C41.2252 119.815 41.0778 120.127 41.0778 120.501C41.0778 120.886 41.2195 121.192 41.5028 121.419C41.7975 121.634 42.1942 121.742 42.6928 121.742ZM48.9759 123V110.76H50.7779V123H48.9759ZM54.0799 112.97C53.7399 112.97 53.4566 112.868 53.2299 112.664C53.0146 112.449 52.9069 112.182 52.9069 111.865C52.9069 111.548 53.0146 111.287 53.2299 111.083C53.4566 110.868 53.7399 110.76 54.0799 110.76C54.4199 110.76 54.6976 110.868 54.9129 111.083C55.1396 111.287 55.2529 111.548 55.2529 111.865C55.2529 112.182 55.1396 112.449 54.9129 112.664C54.6976 112.868 54.4199 112.97 54.0799 112.97ZM53.1789 123V114.568H54.9809V123H53.1789ZM60.2157 123.204C59.5017 123.204 58.9124 123.085 58.4477 122.847C57.983 122.609 57.6374 122.297 57.4107 121.912C57.184 121.515 57.0707 121.085 57.0707 120.62C57.0707 119.804 57.388 119.158 58.0227 118.682C58.6574 118.206 59.564 117.968 60.7427 117.968H62.9527V117.815C62.9527 117.158 62.7714 116.665 62.4087 116.336C62.0574 116.007 61.5984 115.843 61.0317 115.843C60.533 115.843 60.0967 115.968 59.7227 116.217C59.36 116.455 59.139 116.812 59.0597 117.288H57.2577C57.3144 116.676 57.5184 116.155 57.8697 115.724C58.2324 115.282 58.6857 114.948 59.2297 114.721C59.785 114.483 60.3914 114.364 61.0487 114.364C62.2274 114.364 63.1397 114.676 63.7857 115.299C64.4317 115.911 64.7547 116.75 64.7547 117.815V123H63.1907L63.0377 121.555C62.7997 122.02 62.454 122.411 62.0007 122.728C61.5474 123.045 60.9524 123.204 60.2157 123.204ZM60.5727 121.742C61.06 121.742 61.468 121.629 61.7967 121.402C62.1367 121.164 62.3974 120.852 62.5787 120.467C62.7714 120.082 62.8904 119.657 62.9357 119.192H60.9297C60.2157 119.192 59.7057 119.317 59.3997 119.566C59.105 119.815 58.9577 120.127 58.9577 120.501C58.9577 120.886 59.0994 121.192 59.3827 121.419C59.6774 121.634 60.074 121.742 60.5727 121.742ZM71.5988 123.204C70.9415 123.204 70.3578 123.074 69.8478 122.813C69.3491 122.552 68.9525 122.184 68.6578 121.708L68.4708 123H66.8558V110.76H68.6578V115.877C68.9298 115.48 69.3038 115.129 69.7798 114.823C70.2558 114.517 70.8678 114.364 71.6158 114.364C72.4318 114.364 73.1515 114.557 73.7748 114.942C74.3981 115.327 74.8855 115.854 75.2368 116.523C75.5995 117.192 75.7808 117.951 75.7808 118.801C75.7808 119.651 75.5995 120.41 75.2368 121.079C74.8855 121.736 74.3981 122.258 73.7748 122.643C73.1515 123.017 72.4261 123.204 71.5988 123.204ZM71.2928 121.64C72.0635 121.64 72.6981 121.379 73.1968 120.858C73.6955 120.325 73.9448 119.634 73.9448 118.784C73.9448 118.229 73.8315 117.736 73.6048 117.305C73.3781 116.874 73.0665 116.54 72.6698 116.302C72.2731 116.053 71.8141 115.928 71.2928 115.928C70.5221 115.928 69.8875 116.194 69.3888 116.727C68.9015 117.26 68.6578 117.945 68.6578 118.784C68.6578 119.634 68.9015 120.325 69.3888 120.858C69.8875 121.379 70.5221 121.64 71.2928 121.64ZM77.7298 123V110.76H79.5318V123H77.7298ZM85.7578 123.204C84.9305 123.204 84.1938 123.023 83.5478 122.66C82.9131 122.286 82.4145 121.77 82.0518 121.113C81.6891 120.456 81.5078 119.691 81.5078 118.818C81.5078 117.934 81.6835 117.158 82.0348 116.489C82.3975 115.82 82.8961 115.299 83.5308 114.925C84.1768 114.551 84.9248 114.364 85.7748 114.364C86.6021 114.364 87.3218 114.551 87.9338 114.925C88.5458 115.288 89.0218 115.775 89.3618 116.387C89.7018 116.999 89.8718 117.673 89.8718 118.41C89.8718 118.523 89.8661 118.648 89.8548 118.784C89.8548 118.909 89.8491 119.05 89.8378 119.209H83.2758C83.3325 120.025 83.5988 120.648 84.0748 121.079C84.5621 121.498 85.1231 121.708 85.7578 121.708C86.2678 121.708 86.6928 121.595 87.0328 121.368C87.3841 121.13 87.6448 120.813 87.8148 120.416H89.6168C89.3901 121.209 88.9368 121.872 88.2568 122.405C87.5881 122.938 86.7551 123.204 85.7578 123.204ZM85.7578 115.843C85.1571 115.843 84.6245 116.024 84.1598 116.387C83.6951 116.738 83.4118 117.271 83.3098 117.985H88.0698C88.0358 117.328 87.8035 116.806 87.3728 116.421C86.9421 116.036 86.4038 115.843 85.7578 115.843ZM96.0927 123V111.1H100.581C101.816 111.1 102.751 111.389 103.386 111.967C104.02 112.545 104.338 113.27 104.338 114.143C104.338 114.902 104.134 115.509 103.726 115.962C103.318 116.404 102.825 116.704 102.247 116.863C102.7 116.954 103.102 117.135 103.454 117.407C103.816 117.679 104.1 118.019 104.304 118.427C104.508 118.835 104.61 119.277 104.61 119.753C104.61 120.365 104.457 120.92 104.151 121.419C103.856 121.906 103.42 122.292 102.842 122.575C102.264 122.858 101.555 123 100.717 123H96.0927ZM97.8947 116.2H100.36C101.051 116.2 101.578 116.041 101.941 115.724C102.303 115.395 102.485 114.948 102.485 114.381C102.485 113.826 102.303 113.384 101.941 113.055C101.589 112.726 101.051 112.562 100.326 112.562H97.8947V116.2ZM97.8947 121.521H100.479C101.204 121.521 101.765 121.351 102.162 121.011C102.57 120.671 102.774 120.195 102.774 119.583C102.774 118.971 102.564 118.489 102.145 118.138C101.725 117.775 101.159 117.594 100.445 117.594H97.8947V121.521ZM109.373 123.204C108.659 123.204 108.07 123.085 107.605 122.847C107.14 122.609 106.795 122.297 106.568 121.912C106.341 121.515 106.228 121.085 106.228 120.62C106.228 119.804 106.545 119.158 107.18 118.682C107.815 118.206 108.721 117.968 109.9 117.968H112.11V117.815C112.11 117.158 111.929 116.665 111.566 116.336C111.215 116.007 110.756 115.843 110.189 115.843C109.69 115.843 109.254 115.968 108.88 116.217C108.517 116.455 108.296 116.812 108.217 117.288H106.415C106.472 116.676 106.676 116.155 107.027 115.724C107.39 115.282 107.843 114.948 108.387 114.721C108.942 114.483 109.549 114.364 110.206 114.364C111.385 114.364 112.297 114.676 112.943 115.299C113.589 115.911 113.912 116.75 113.912 117.815V123H112.348L112.195 121.555C111.957 122.02 111.611 122.411 111.158 122.728C110.705 123.045 110.11 123.204 109.373 123.204ZM109.73 121.742C110.217 121.742 110.625 121.629 110.954 121.402C111.294 121.164 111.555 120.852 111.736 120.467C111.929 120.082 112.048 119.657 112.093 119.192H110.087C109.373 119.192 108.863 119.317 108.557 119.566C108.262 119.815 108.115 120.127 108.115 120.501C108.115 120.886 108.257 121.192 108.54 121.419C108.835 121.634 109.231 121.742 109.73 121.742ZM116.013 123V110.76H117.815V123H116.013ZM122.953 123.204C122.239 123.204 121.65 123.085 121.185 122.847C120.72 122.609 120.375 122.297 120.148 121.912C119.921 121.515 119.808 121.085 119.808 120.62C119.808 119.804 120.125 119.158 120.76 118.682C121.395 118.206 122.301 117.968 123.48 117.968H125.69V117.815C125.69 117.158 125.509 116.665 125.146 116.336C124.795 116.007 124.336 115.843 123.769 115.843C123.27 115.843 122.834 115.968 122.46 116.217C122.097 116.455 121.876 116.812 121.797 117.288H119.995C120.052 116.676 120.256 116.155 120.607 115.724C120.97 115.282 121.423 114.948 121.967 114.721C122.522 114.483 123.129 114.364 123.786 114.364C124.965 114.364 125.877 114.676 126.523 115.299C127.169 115.911 127.492 116.75 127.492 117.815V123H125.928L125.775 121.555C125.537 122.02 125.191 122.411 124.738 122.728C124.285 123.045 123.69 123.204 122.953 123.204ZM123.31 121.742C123.797 121.742 124.205 121.629 124.534 121.402C124.874 121.164 125.135 120.852 125.316 120.467C125.509 120.082 125.628 119.657 125.673 119.192H123.667C122.953 119.192 122.443 119.317 122.137 119.566C121.842 119.815 121.695 120.127 121.695 120.501C121.695 120.886 121.837 121.192 122.12 121.419C122.415 121.634 122.811 121.742 123.31 121.742ZM129.593 123V114.568H131.191L131.327 116.047C131.588 115.526 131.967 115.118 132.466 114.823C132.976 114.517 133.56 114.364 134.217 114.364C135.237 114.364 136.036 114.681 136.614 115.316C137.203 115.951 137.498 116.897 137.498 118.155V123H135.713V118.342C135.713 116.71 135.044 115.894 133.707 115.894C133.038 115.894 132.483 116.132 132.041 116.608C131.61 117.084 131.395 117.764 131.395 118.648V123H129.593ZM143.615 123.204C142.788 123.204 142.046 123.017 141.388 122.643C140.742 122.269 140.232 121.753 139.858 121.096C139.496 120.427 139.314 119.657 139.314 118.784C139.314 117.911 139.496 117.146 139.858 116.489C140.232 115.82 140.742 115.299 141.388 114.925C142.046 114.551 142.788 114.364 143.615 114.364C144.658 114.364 145.531 114.636 146.233 115.18C146.947 115.724 147.406 116.461 147.61 117.39H145.723C145.61 116.925 145.361 116.563 144.975 116.302C144.59 116.041 144.137 115.911 143.615 115.911C143.173 115.911 142.765 116.024 142.391 116.251C142.017 116.466 141.717 116.789 141.49 117.22C141.264 117.639 141.15 118.161 141.15 118.784C141.15 119.407 141.264 119.934 141.49 120.365C141.717 120.784 142.017 121.107 142.391 121.334C142.765 121.561 143.173 121.674 143.615 121.674C144.137 121.674 144.59 121.544 144.975 121.283C145.361 121.022 145.61 120.654 145.723 120.178H147.61C147.418 121.085 146.964 121.816 146.25 122.371C145.536 122.926 144.658 123.204 143.615 123.204ZM153.509 123.204C152.681 123.204 151.945 123.023 151.299 122.66C150.664 122.286 150.165 121.77 149.803 121.113C149.44 120.456 149.259 119.691 149.259 118.818C149.259 117.934 149.434 117.158 149.786 116.489C150.148 115.82 150.647 115.299 151.282 114.925C151.928 114.551 152.676 114.364 153.526 114.364C154.353 114.364 155.073 114.551 155.685 114.925C156.297 115.288 156.773 115.775 157.113 116.387C157.453 116.999 157.623 117.673 157.623 118.41C157.623 118.523 157.617 118.648 157.606 118.784C157.606 118.909 157.6 119.05 157.589 119.209H151.027C151.083 120.025 151.35 120.648 151.826 121.079C152.313 121.498 152.874 121.708 153.509 121.708C154.019 121.708 154.444 121.595 154.784 121.368C155.135 121.13 155.396 120.813 155.566 120.416H157.368C157.141 121.209 156.688 121.872 156.008 122.405C155.339 122.938 154.506 123.204 153.509 123.204ZM153.509 115.843C152.908 115.843 152.375 116.024 151.911 116.387C151.446 116.738 151.163 117.271 151.061 117.985H155.821C155.787 117.328 155.554 116.806 155.124 116.421C154.693 116.036 154.155 115.843 153.509 115.843Z" fill="#EE8520"/>
<path d="M20.391 28L24.743 16.1H27.191L31.543 28H29.231L28.279 25.246H23.638L22.669 28H20.391ZM24.233 23.546H27.684L25.95 18.599L24.233 23.546ZM36.7575 28.204C35.8962 28.204 35.1368 28.017 34.4795 27.643C33.8222 27.269 33.3008 26.7477 32.9155 26.079C32.5415 25.4103 32.3545 24.6453 32.3545 23.784C32.3545 22.9227 32.5415 22.1577 32.9155 21.489C33.3008 20.8203 33.8222 20.299 34.4795 19.925C35.1368 19.551 35.8962 19.364 36.7575 19.364C37.8342 19.364 38.7408 19.6473 39.4775 20.214C40.2142 20.7693 40.6845 21.54 40.8885 22.526H38.5935C38.4802 22.118 38.2535 21.8007 37.9135 21.574C37.5848 21.336 37.1938 21.217 36.7405 21.217C36.1398 21.217 35.6298 21.4437 35.2105 21.897C34.7912 22.3503 34.5815 22.9793 34.5815 23.784C34.5815 24.5887 34.7912 25.2177 35.2105 25.671C35.6298 26.1243 36.1398 26.351 36.7405 26.351C37.1938 26.351 37.5848 26.2377 37.9135 26.011C38.2535 25.7843 38.4802 25.4613 38.5935 25.042H40.8885C40.6845 25.994 40.2142 26.759 39.4775 27.337C38.7408 27.915 37.8342 28.204 36.7575 28.204ZM46.9508 28.204C46.0895 28.204 45.3302 28.017 44.6728 27.643C44.0155 27.269 43.4942 26.7477 43.1088 26.079C42.7348 25.4103 42.5478 24.6453 42.5478 23.784C42.5478 22.9227 42.7348 22.1577 43.1088 21.489C43.4942 20.8203 44.0155 20.299 44.6728 19.925C45.3302 19.551 46.0895 19.364 46.9508 19.364C48.0275 19.364 48.9342 19.6473 49.6708 20.214C50.4075 20.7693 50.8778 21.54 51.0818 22.526H48.7868C48.6735 22.118 48.4468 21.8007 48.1068 21.574C47.7782 21.336 47.3872 21.217 46.9338 21.217C46.3332 21.217 45.8232 21.4437 45.4038 21.897C44.9845 22.3503 44.7748 22.9793 44.7748 23.784C44.7748 24.5887 44.9845 25.2177 45.4038 25.671C45.8232 26.1243 46.3332 26.351 46.9338 26.351C47.3872 26.351 47.7782 26.2377 48.1068 26.011C48.4468 25.7843 48.6735 25.4613 48.7868 25.042H51.0818C50.8778 25.994 50.4075 26.759 49.6708 27.337C48.9342 27.915 48.0275 28.204 46.9508 28.204ZM57.0592 28.204C56.2432 28.204 55.5065 28.017 54.8492 27.643C54.2032 27.269 53.6875 26.7533 53.3022 26.096C52.9282 25.4273 52.7412 24.6567 52.7412 23.784C52.7412 22.9113 52.9339 22.1463 53.3192 21.489C53.7045 20.8203 54.2202 20.299 54.8662 19.925C55.5235 19.551 56.2602 19.364 57.0762 19.364C57.8809 19.364 58.6062 19.551 59.2522 19.925C59.9095 20.299 60.4252 20.8203 60.7992 21.489C61.1845 22.1463 61.3772 22.9113 61.3772 23.784C61.3772 24.6567 61.1845 25.4273 60.7992 26.096C60.4252 26.7533 59.9095 27.269 59.2522 27.643C58.5949 28.017 57.8639 28.204 57.0592 28.204ZM57.0592 26.317C57.6259 26.317 58.1189 26.1073 58.5382 25.688C58.9575 25.2573 59.1672 24.6227 59.1672 23.784C59.1672 22.9453 58.9575 22.3163 58.5382 21.897C58.1189 21.4663 57.6315 21.251 57.0762 21.251C56.4982 21.251 55.9995 21.4663 55.5802 21.897C55.1722 22.3163 54.9682 22.9453 54.9682 23.784C54.9682 24.6227 55.1722 25.2573 55.5802 25.688C55.9995 26.1073 56.4925 26.317 57.0592 26.317ZM66.4848 28.204C65.4308 28.204 64.6148 27.8753 64.0368 27.218C63.4701 26.5607 63.1868 25.5973 63.1868 24.328V19.568H65.3458V24.124C65.3458 24.8493 65.4931 25.4047 65.7878 25.79C66.0824 26.1753 66.5471 26.368 67.1818 26.368C67.7824 26.368 68.2754 26.1527 68.6608 25.722C69.0574 25.2913 69.2558 24.6907 69.2558 23.92V19.568H71.4318V28H69.5108L69.3408 26.572C69.0801 27.0707 68.7004 27.4673 68.2018 27.762C67.7144 28.0567 67.1421 28.204 66.4848 28.204ZM73.6655 28V19.568H75.5865L75.7565 20.996C76.0172 20.4973 76.3912 20.1007 76.8785 19.806C77.3772 19.5113 77.9609 19.364 78.6295 19.364C79.6722 19.364 80.4825 19.6927 81.0605 20.35C81.6385 21.0073 81.9275 21.9707 81.9275 23.24V28H79.7515V23.444C79.7515 22.7187 79.6042 22.1633 79.3095 21.778C79.0149 21.3927 78.5559 21.2 77.9325 21.2C77.3205 21.2 76.8162 21.4153 76.4195 21.846C76.0342 22.2767 75.8415 22.8773 75.8415 23.648V28H73.6655ZM87.7653 28C86.8813 28 86.173 27.7847 85.6403 27.354C85.1077 26.9233 84.8413 26.1583 84.8413 25.059V21.387H83.3963V19.568H84.8413L85.0963 17.307H87.0173V19.568H89.2953V21.387H87.0173V25.076C87.0173 25.484 87.1023 25.7673 87.2723 25.926C87.4537 26.0733 87.7597 26.147 88.1903 26.147H89.2443V28H87.7653ZM95.2654 28V16.1H97.4414L103.034 24.481V16.1H105.21V28H103.034L97.4414 19.636V28H95.2654ZM110.628 28.204C109.574 28.204 108.758 27.8753 108.18 27.218C107.614 26.5607 107.33 25.5973 107.33 24.328V19.568H109.489V24.124C109.489 24.8493 109.637 25.4047 109.931 25.79C110.226 26.1753 110.691 26.368 111.325 26.368C111.926 26.368 112.419 26.1527 112.804 25.722C113.201 25.2913 113.399 24.6907 113.399 23.92V19.568H115.575V28H113.654L113.484 26.572C113.224 27.0707 112.844 27.4673 112.345 27.762C111.858 28.0567 111.286 28.204 110.628 28.204ZM117.809 28V19.568H119.73L119.917 20.707C120.189 20.299 120.546 19.976 120.988 19.738C121.441 19.4887 121.963 19.364 122.552 19.364C123.855 19.364 124.779 19.8683 125.323 20.877C125.629 20.4123 126.037 20.044 126.547 19.772C127.068 19.5 127.635 19.364 128.247 19.364C129.346 19.364 130.191 19.6927 130.78 20.35C131.369 21.0073 131.664 21.9707 131.664 23.24V28H129.488V23.444C129.488 22.7187 129.346 22.1633 129.063 21.778C128.791 21.3927 128.366 21.2 127.788 21.2C127.199 21.2 126.723 21.4153 126.36 21.846C126.009 22.2767 125.833 22.8773 125.833 23.648V28H123.657V23.444C123.657 22.7187 123.515 22.1633 123.232 21.778C122.949 21.3927 122.512 21.2 121.923 21.2C121.345 21.2 120.875 21.4153 120.512 21.846C120.161 22.2767 119.985 22.8773 119.985 23.648V28H117.809ZM138.728 28.204C138.093 28.204 137.538 28.085 137.062 27.847C136.586 27.609 136.201 27.2747 135.906 26.844L135.668 28H133.73V15.76H135.906V20.775C136.178 20.401 136.535 20.0723 136.977 19.789C137.43 19.5057 138.014 19.364 138.728 19.364C139.521 19.364 140.23 19.5567 140.853 19.942C141.476 20.3273 141.969 20.8543 142.332 21.523C142.695 22.1917 142.876 22.951 142.876 23.801C142.876 24.651 142.695 25.4103 142.332 26.079C141.969 26.7363 141.476 27.2577 140.853 27.643C140.23 28.017 139.521 28.204 138.728 28.204ZM138.269 26.3C138.96 26.3 139.533 26.0677 139.986 25.603C140.439 25.1383 140.666 24.5377 140.666 23.801C140.666 23.0643 140.439 22.458 139.986 21.982C139.533 21.506 138.96 21.268 138.269 21.268C137.566 21.268 136.988 21.506 136.535 21.982C136.093 22.4467 135.872 23.0473 135.872 23.784C135.872 24.5207 136.093 25.127 136.535 25.603C136.988 26.0677 137.566 26.3 138.269 26.3ZM148.917 28.204C148.067 28.204 147.313 28.0227 146.656 27.66C145.999 27.2973 145.483 26.7873 145.109 26.13C144.735 25.4727 144.548 24.7133 144.548 23.852C144.548 22.9793 144.729 22.203 145.092 21.523C145.466 20.843 145.976 20.316 146.622 19.942C147.279 19.5567 148.05 19.364 148.934 19.364C149.761 19.364 150.492 19.5453 151.127 19.908C151.762 20.2707 152.255 20.7693 152.606 21.404C152.969 22.0273 153.15 22.7243 153.15 23.495C153.15 23.6197 153.144 23.75 153.133 23.886C153.133 24.022 153.127 24.1637 153.116 24.311H146.707C146.752 24.9683 146.979 25.484 147.387 25.858C147.806 26.232 148.311 26.419 148.9 26.419C149.342 26.419 149.71 26.3227 150.005 26.13C150.311 25.926 150.538 25.6653 150.685 25.348H152.895C152.736 25.8807 152.47 26.368 152.096 26.81C151.733 27.2407 151.28 27.5807 150.736 27.83C150.203 28.0793 149.597 28.204 148.917 28.204ZM148.934 21.132C148.401 21.132 147.931 21.285 147.523 21.591C147.115 21.8857 146.854 22.339 146.741 22.951H150.94C150.906 22.3957 150.702 21.9537 150.328 21.625C149.954 21.2963 149.489 21.132 148.934 21.132ZM154.98 28V19.568H156.918L157.122 21.149C157.428 20.605 157.842 20.1743 158.363 19.857C158.896 19.5283 159.519 19.364 160.233 19.364V21.659H159.621C159.145 21.659 158.72 21.7327 158.346 21.88C157.972 22.0273 157.677 22.2823 157.462 22.645C157.258 23.0077 157.156 23.512 157.156 24.158V28H154.98Z" fill="#EE8520"/>
<path d="M19.867 47V45.419C20.5923 44.8183 21.295 44.2233 21.975 43.634C22.6663 43.0447 23.2783 42.461 23.811 41.883C24.355 41.305 24.7857 40.744 25.103 40.2C25.4317 39.6447 25.596 39.1063 25.596 38.585C25.596 38.0977 25.46 37.667 25.188 37.293C24.9273 36.919 24.491 36.732 23.879 36.732C23.2557 36.732 22.7853 36.936 22.468 37.344C22.1507 37.752 21.992 38.245 21.992 38.823H19.884C19.9067 37.9503 20.0993 37.225 20.462 36.647C20.8247 36.0577 21.3063 35.6213 21.907 35.338C22.5077 35.0433 23.182 34.896 23.93 34.896C25.1427 34.896 26.0833 35.2303 26.752 35.899C27.432 36.5563 27.772 37.412 27.772 38.466C27.772 39.1233 27.619 39.7637 27.313 40.387C27.0183 41.0103 26.6273 41.611 26.14 42.189C25.6527 42.767 25.1257 43.311 24.559 43.821C23.9923 44.3197 23.4427 44.7843 22.91 45.215H28.061V47H19.867ZM31.1599 47V37.582L29.2049 38.041V36.375L32.0779 35.1H33.4209V47H31.1599ZM37.0203 47V37.582L35.0653 38.041V36.375L37.9383 35.1H39.2813V47H37.0203ZM41.2996 47V45.419C42.025 44.8183 42.7276 44.2233 43.4076 43.634C44.099 43.0447 44.711 42.461 45.2436 41.883C45.7876 41.305 46.2183 40.744 46.5356 40.2C46.8643 39.6447 47.0286 39.1063 47.0286 38.585C47.0286 38.0977 46.8926 37.667 46.6206 37.293C46.36 36.919 45.9236 36.732 45.3116 36.732C44.6883 36.732 44.218 36.936 43.9006 37.344C43.5833 37.752 43.4246 38.245 43.4246 38.823H41.3166C41.3393 37.9503 41.532 37.225 41.8946 36.647C42.2573 36.0577 42.739 35.6213 43.3396 35.338C43.9403 35.0433 44.6146 34.896 45.3626 34.896C46.5753 34.896 47.516 35.2303 48.1846 35.899C48.8646 36.5563 49.2046 37.412 49.2046 38.466C49.2046 39.1233 49.0516 39.7637 48.7456 40.387C48.451 41.0103 48.06 41.611 47.5726 42.189C47.0853 42.767 46.5583 43.311 45.9916 43.821C45.425 44.3197 44.8753 44.7843 44.3426 45.215H49.4936V47H41.2996ZM55.5675 47.204C54.6949 47.204 53.9412 47.051 53.3065 46.745C52.6832 46.439 52.1902 46.0197 51.8275 45.487C51.4762 44.943 51.2722 44.331 51.2155 43.651H53.3405C53.4425 44.1383 53.6919 44.5463 54.0885 44.875C54.4852 45.1923 54.9782 45.351 55.5675 45.351C56.2022 45.351 56.7179 45.1187 57.1145 44.654C57.5225 44.1893 57.7265 43.6113 57.7265 42.92C57.7265 42.206 57.5225 41.6393 57.1145 41.22C56.7179 40.8007 56.2135 40.591 55.6015 40.591C55.0915 40.591 54.6495 40.7157 54.2755 40.965C53.9015 41.2143 53.6352 41.526 53.4765 41.9H51.3855L52.4055 35.1H59.0015V37.004H54.0375L53.4935 39.758C53.7429 39.486 54.0829 39.265 54.5135 39.095C54.9442 38.9137 55.4259 38.823 55.9585 38.823C56.8085 38.823 57.5169 39.0157 58.0835 39.401C58.6502 39.775 59.0809 40.2737 59.3755 40.897C59.6702 41.509 59.8175 42.1777 59.8175 42.903C59.8175 43.7303 59.6362 44.467 59.2735 45.113C58.9222 45.759 58.4235 46.269 57.7775 46.643C57.1429 47.017 56.4062 47.204 55.5675 47.204ZM66.1095 47.204C65.2369 47.204 64.4832 47.051 63.8485 46.745C63.2252 46.439 62.7322 46.0197 62.3695 45.487C62.0182 44.943 61.8142 44.331 61.7575 43.651H63.8825C63.9845 44.1383 64.2339 44.5463 64.6305 44.875C65.0272 45.1923 65.5202 45.351 66.1095 45.351C66.7442 45.351 67.2599 45.1187 67.6565 44.654C68.0645 44.1893 68.2685 43.6113 68.2685 42.92C68.2685 42.206 68.0645 41.6393 67.6565 41.22C67.2599 40.8007 66.7555 40.591 66.1435 40.591C65.6335 40.591 65.1915 40.7157 64.8175 40.965C64.4435 41.2143 64.1772 41.526 64.0185 41.9H61.9275L62.9475 35.1H69.5435V37.004H64.5795L64.0355 39.758C64.2849 39.486 64.6249 39.265 65.0555 39.095C65.4862 38.9137 65.9679 38.823 66.5005 38.823C67.3505 38.823 68.0589 39.0157 68.6255 39.401C69.1922 39.775 69.6229 40.2737 69.9175 40.897C70.2122 41.509 70.3595 42.1777 70.3595 42.903C70.3595 43.7303 70.1782 44.467 69.8155 45.113C69.4642 45.759 68.9655 46.269 68.3195 46.643C67.6849 47.017 66.9482 47.204 66.1095 47.204ZM74.1673 40.88L74.4903 38.483L72.5863 39.979L71.7703 38.534L73.9973 37.65L71.7873 36.8L72.5523 35.423L74.5073 36.902L74.1673 34.471H75.7483L75.4083 36.902L77.3463 35.423L78.0943 36.783L75.8843 37.667L78.1113 38.551L77.3123 39.962L75.4083 38.483L75.7313 40.88H74.1673ZM82.7669 40.88L83.0899 38.483L81.1859 39.979L80.3699 38.534L82.5969 37.65L80.3869 36.8L81.1519 35.423L83.1069 36.902L82.7669 34.471H84.3479L84.0079 36.902L85.9459 35.423L86.6939 36.783L84.4839 37.667L86.7109 38.551L85.9119 39.962L84.0079 38.483L84.3309 40.88H82.7669ZM91.3665 40.88L91.6895 38.483L89.7855 39.979L88.9695 38.534L91.1965 37.65L88.9865 36.8L89.7515 35.423L91.7065 36.902L91.3665 34.471H92.9475L92.6075 36.902L94.5455 35.423L95.2935 36.783L93.0835 37.667L95.3105 38.551L94.5115 39.962L92.6075 38.483L92.9305 40.88H91.3665ZM99.9661 40.88L100.289 38.483L98.3851 39.979L97.5691 38.534L99.7961 37.65L97.5861 36.8L98.3511 35.423L100.306 36.902L99.9661 34.471H101.547L101.207 36.902L103.145 35.423L103.893 36.783L101.683 37.667L103.91 38.551L103.111 39.962L101.207 38.483L101.53 40.88H99.9661ZM108.566 40.88L108.889 38.483L106.985 39.979L106.169 38.534L108.396 37.65L106.186 36.8L106.951 35.423L108.906 36.902L108.566 34.471H110.147L109.807 36.902L111.745 35.423L112.493 36.783L110.283 37.667L112.51 38.551L111.711 39.962L109.807 38.483L110.13 40.88H108.566Z" fill="#EE8520"/>
<path d="M21.156 146V134.1H23.332L28.925 142.481V134.1H31.101V146H28.925L23.332 137.636V146H21.156ZM34.7 146V136.582L32.745 137.041V135.375L35.618 134.1H36.961V146H34.7ZM38.3503 147.972L39.3193 143.739H41.4273L39.7783 147.972H38.3503ZM48.0819 146.204C46.9825 146.204 46.0419 145.949 45.2599 145.439C44.4779 144.918 43.8715 144.198 43.4409 143.28C43.0215 142.351 42.8119 141.274 42.8119 140.05C42.8119 138.837 43.0215 137.766 43.4409 136.837C43.8715 135.908 44.4779 135.188 45.2599 134.678C46.0419 134.157 46.9825 133.896 48.0819 133.896C49.1812 133.896 50.1219 134.157 50.9039 134.678C51.6859 135.188 52.2865 135.908 52.7059 136.837C53.1365 137.766 53.3519 138.837 53.3519 140.05C53.3519 141.274 53.1365 142.351 52.7059 143.28C52.2865 144.198 51.6859 144.918 50.9039 145.439C50.1219 145.949 49.1812 146.204 48.0819 146.204ZM48.0819 144.249C48.9772 144.249 49.7082 143.875 50.2749 143.127C50.8415 142.379 51.1249 141.353 51.1249 140.05C51.1249 138.747 50.8415 137.721 50.2749 136.973C49.7082 136.225 48.9772 135.851 48.0819 135.851C47.1752 135.851 46.4385 136.225 45.8719 136.973C45.3165 137.721 45.0389 138.747 45.0389 140.05C45.0389 141.353 45.3165 142.379 45.8719 143.127C46.4385 143.875 47.1752 144.249 48.0819 144.249ZM59.5392 146.204C58.6665 146.204 57.9129 146.051 57.2782 145.745C56.6549 145.439 56.1619 145.02 55.7992 144.487C55.4479 143.943 55.2439 143.331 55.1872 142.651H57.3122C57.4142 143.138 57.6635 143.546 58.0602 143.875C58.4569 144.192 58.9499 144.351 59.5392 144.351C60.1739 144.351 60.6895 144.119 61.0862 143.654C61.4942 143.189 61.6982 142.611 61.6982 141.92C61.6982 141.206 61.4942 140.639 61.0862 140.22C60.6895 139.801 60.1852 139.591 59.5732 139.591C59.0632 139.591 58.6212 139.716 58.2472 139.965C57.8732 140.214 57.6069 140.526 57.4482 140.9H55.3572L56.3772 134.1H62.9732V136.004H58.0092L57.4652 138.758C57.7145 138.486 58.0545 138.265 58.4852 138.095C58.9159 137.914 59.3975 137.823 59.9302 137.823C60.7802 137.823 61.4885 138.016 62.0552 138.401C62.6219 138.775 63.0525 139.274 63.3472 139.897C63.6419 140.509 63.7892 141.178 63.7892 141.903C63.7892 142.73 63.6079 143.467 63.2452 144.113C62.8939 144.759 62.3952 145.269 61.7492 145.643C61.1145 146.017 60.3779 146.204 59.5392 146.204ZM70.6932 146.204C69.5939 146.204 68.6532 145.949 67.8712 145.439C67.0892 144.918 66.4829 144.198 66.0522 143.28C65.6329 142.351 65.4232 141.274 65.4232 140.05C65.4232 138.837 65.6329 137.766 66.0522 136.837C66.4829 135.908 67.0892 135.188 67.8712 134.678C68.6532 134.157 69.5939 133.896 70.6932 133.896C71.7925 133.896 72.7332 134.157 73.5152 134.678C74.2972 135.188 74.8979 135.908 75.3172 136.837C75.7479 137.766 75.9632 138.837 75.9632 140.05C75.9632 141.274 75.7479 142.351 75.3172 143.28C74.8979 144.198 74.2972 144.918 73.5152 145.439C72.7332 145.949 71.7925 146.204 70.6932 146.204ZM70.6932 144.249C71.5885 144.249 72.3195 143.875 72.8862 143.127C73.4529 142.379 73.7362 141.353 73.7362 140.05C73.7362 138.747 73.4529 137.721 72.8862 136.973C72.3195 136.225 71.5885 135.851 70.6932 135.851C69.7865 135.851 69.0499 136.225 68.4832 136.973C67.9279 137.721 67.6502 138.747 67.6502 140.05C67.6502 141.353 67.9279 142.379 68.4832 143.127C69.0499 143.875 69.7865 144.249 70.6932 144.249ZM76.4509 147.972L77.4199 143.739H79.5279L77.8789 147.972H76.4509ZM86.1825 146.204C85.0831 146.204 84.1425 145.949 83.3605 145.439C82.5785 144.918 81.9721 144.198 81.5415 143.28C81.1221 142.351 80.9125 141.274 80.9125 140.05C80.9125 138.837 81.1221 137.766 81.5415 136.837C81.9721 135.908 82.5785 135.188 83.3605 134.678C84.1425 134.157 85.0831 133.896 86.1825 133.896C87.2818 133.896 88.2225 134.157 89.0045 134.678C89.7865 135.188 90.3871 135.908 90.8065 136.837C91.2371 137.766 91.4525 138.837 91.4525 140.05C91.4525 141.274 91.2371 142.351 90.8065 143.28C90.3871 144.198 89.7865 144.918 89.0045 145.439C88.2225 145.949 87.2818 146.204 86.1825 146.204ZM86.1825 144.249C87.0778 144.249 87.8088 143.875 88.3755 143.127C88.9421 142.379 89.2255 141.353 89.2255 140.05C89.2255 138.747 88.9421 137.721 88.3755 136.973C87.8088 136.225 87.0778 135.851 86.1825 135.851C85.2758 135.851 84.5391 136.225 83.9725 136.973C83.4171 137.721 83.1395 138.747 83.1395 140.05C83.1395 141.353 83.4171 142.379 83.9725 143.127C84.5391 143.875 85.2758 144.249 86.1825 144.249ZM98.2518 146.204C97.1525 146.204 96.2118 145.949 95.4298 145.439C94.6478 144.918 94.0415 144.198 93.6108 143.28C93.1915 142.351 92.9818 141.274 92.9818 140.05C92.9818 138.837 93.1915 137.766 93.6108 136.837C94.0415 135.908 94.6478 135.188 95.4298 134.678C96.2118 134.157 97.1525 133.896 98.2518 133.896C99.3511 133.896 100.292 134.157 101.074 134.678C101.856 135.188 102.456 135.908 102.876 136.837C103.306 137.766 103.522 138.837 103.522 140.05C103.522 141.274 103.306 142.351 102.876 143.28C102.456 144.198 101.856 144.918 101.074 145.439C100.292 145.949 99.3511 146.204 98.2518 146.204ZM98.2518 144.249C99.1471 144.249 99.8781 143.875 100.445 143.127C101.011 142.379 101.295 141.353 101.295 140.05C101.295 138.747 101.011 137.721 100.445 136.973C99.8781 136.225 99.1471 135.851 98.2518 135.851C97.3451 135.851 96.6085 136.225 96.0418 136.973C95.4865 137.721 95.2088 138.747 95.2088 140.05C95.2088 141.353 95.4865 142.379 96.0418 143.127C96.6085 143.875 97.3451 144.249 98.2518 144.249ZM110.321 146.204C109.222 146.204 108.281 145.949 107.499 145.439C106.717 144.918 106.111 144.198 105.68 143.28C105.261 142.351 105.051 141.274 105.051 140.05C105.051 138.837 105.261 137.766 105.68 136.837C106.111 135.908 106.717 135.188 107.499 134.678C108.281 134.157 109.222 133.896 110.321 133.896C111.42 133.896 112.361 134.157 113.143 134.678C113.925 135.188 114.526 135.908 114.945 136.837C115.376 137.766 115.591 138.837 115.591 140.05C115.591 141.274 115.376 142.351 114.945 143.28C114.526 144.198 113.925 144.918 113.143 145.439C112.361 145.949 111.42 146.204 110.321 146.204ZM110.321 144.249C111.216 144.249 111.947 143.875 112.514 143.127C113.081 142.379 113.364 141.353 113.364 140.05C113.364 138.747 113.081 137.721 112.514 136.973C111.947 136.225 111.216 135.851 110.321 135.851C109.414 135.851 108.678 136.225 108.111 136.973C107.556 137.721 107.278 138.747 107.278 140.05C107.278 141.353 107.556 142.379 108.111 143.127C108.678 143.875 109.414 144.249 110.321 144.249ZM117.715 146.119C117.318 146.119 116.989 145.994 116.729 145.745C116.479 145.496 116.355 145.195 116.355 144.844C116.355 144.481 116.479 144.175 116.729 143.926C116.989 143.677 117.318 143.552 117.715 143.552C118.111 143.552 118.434 143.677 118.684 143.926C118.944 144.175 119.075 144.481 119.075 144.844C119.075 145.195 118.944 145.496 118.684 145.745C118.434 145.994 118.111 146.119 117.715 146.119ZM125.113 146.204C124.014 146.204 123.073 145.949 122.291 145.439C121.509 144.918 120.903 144.198 120.472 143.28C120.053 142.351 119.843 141.274 119.843 140.05C119.843 138.837 120.053 137.766 120.472 136.837C120.903 135.908 121.509 135.188 122.291 134.678C123.073 134.157 124.014 133.896 125.113 133.896C126.212 133.896 127.153 134.157 127.935 134.678C128.717 135.188 129.318 135.908 129.737 136.837C130.168 137.766 130.383 138.837 130.383 140.05C130.383 141.274 130.168 142.351 129.737 143.28C129.318 144.198 128.717 144.918 127.935 145.439C127.153 145.949 126.212 146.204 125.113 146.204ZM125.113 144.249C126.008 144.249 126.739 143.875 127.306 143.127C127.873 142.379 128.156 141.353 128.156 140.05C128.156 138.747 127.873 137.721 127.306 136.973C126.739 136.225 126.008 135.851 125.113 135.851C124.206 135.851 123.47 136.225 122.903 136.973C122.348 137.721 122.07 138.747 122.07 140.05C122.07 141.353 122.348 142.379 122.903 143.127C123.47 143.875 124.206 144.249 125.113 144.249ZM137.182 146.204C136.083 146.204 135.142 145.949 134.36 145.439C133.578 144.918 132.972 144.198 132.541 143.28C132.122 142.351 131.912 141.274 131.912 140.05C131.912 138.837 132.122 137.766 132.541 136.837C132.972 135.908 133.578 135.188 134.36 134.678C135.142 134.157 136.083 133.896 137.182 133.896C138.282 133.896 139.222 134.157 140.004 134.678C140.786 135.188 141.387 135.908 141.806 136.837C142.237 137.766 142.452 138.837 142.452 140.05C142.452 141.274 142.237 142.351 141.806 143.28C141.387 144.198 140.786 144.918 140.004 145.439C139.222 145.949 138.282 146.204 137.182 146.204ZM137.182 144.249C138.078 144.249 138.809 143.875 139.375 143.127C139.942 142.379 140.225 141.353 140.225 140.05C140.225 138.747 139.942 137.721 139.375 136.973C138.809 136.225 138.078 135.851 137.182 135.851C136.276 135.851 135.539 136.225 134.972 136.973C134.417 137.721 134.139 138.747 134.139 140.05C134.139 141.353 134.417 142.379 134.972 143.127C135.539 143.875 136.276 144.249 137.182 144.249Z" fill="#EE8520"/>
<defs>
<filter id="filter0_d_789_98" x="-60" y="-30" width="392" height="295" filterUnits="userSpaceOnUse" color-interpolation-filters="sRGB">
<feFlood flood-opacity="0" result="BackgroundImageFix"/>
<feColorMatrix in="SourceAlpha" type="matrix" values="0 0 0 0 0 0 0 0 0 0 0 0 0 0 0 0 0 0 127 0" result="hardAlpha"/>
<feOffset dy="30"/>
<feGaussianBlur stdDeviation="30"/>
<feColorMatrix type="matrix" values="0 0 0 0 0 0 0 0 0 0 0 0 0 0 0 0 0 0 0.0790811 0"/>
<feBlend mode="normal" in2="BackgroundImageFix" result="effect1_dropShadow_789_98"/>
<feBlend mode="normal" in="SourceGraphic" in2="effect1_dropShadow_789_98" result="shape"/>
</filter>
<linearGradient id="paint0_linear_789_98" x1="398.85" y1="89.1914" x2="242.051" y2="-152.212" gradientUnits="userSpaceOnUse">
<stop/>
<stop offset="0.253229" stop-color="#171B25"/>
<stop offset="1" stop-color="#545B6D"/>
</linearGradient>
<linearGradient id="paint1_linear_789_98" x1="2.43383" y1="73.8318" x2="37.1859" y2="112.334" gradientUnits="userSpaceOnUse">
<stop stop-color="#F3F3F4"/>
<stop offset="1" stop-color="#989B9E"/>
</linearGradient>
<linearGradient id="paint2_linear_789_98" x1="16.1708" y1="74.9069" x2="40.8285" y2="103.852" gradientUnits="userSpaceOnUse">
<stop stop-color="white"/>
<stop offset="1" stop-color="#1F1F1F"/>
</linearGradient>
<clipPath id="clip0_789_98">
<rect width="272" height="175" fill="white"/>
</clipPath>
</defs>
</svg>
